<?xml version="1.0" encoding="UTF-8"?>
<!DOCTYPE svg PUBLIC "-//W3C//DTD SVG 1.1//EN" "http://www.w3.org/Graphics/SVG/1.1/DTD/svg11.dtd">
<!-- Creator: CorelDRAW -->
<svg xmlns="http://www.w3.org/2000/svg" xml:space="preserve" width="100%" height="100%" style="shape-rendering:geometricPrecision; text-rendering:geometricPrecision; image-rendering:optimizeQuality; fill-rule:evenodd; clip-rule:evenodd"
viewBox="0 0 29.7 21"
 xmlns:xlink="http://www.w3.org/1999/xlink">
 <defs>
  <style type="text/css">
   <![CDATA[
    .str1 {stroke:#D9000F;stroke-width:0.02}
    .str0 {stroke:#E3000F;stroke-width:0.02}
    .fil1 {fill:#D9000F}
    .fil0 {fill:#E3000F}
    .fil2 {fill:#D9000F;fill-rule:nonzero}
   ]]>
  </style>
   <clipPath id="id0">
    <rect x="8.5882" y="8.33042" width="12.5236" height="4.33916"/>
   </clipPath>
 </defs>
 <g id="Слой_x0020_1" visibility="hidden">
  <metadata id="CorelCorpID_0Corel-Layer"/>
  <g style="clip-path:url(#id0)">
   <image transform="matrix(1 0 0 1 -6.2618 2.16958)" x="14.85" y="6.16084" width="12.5236" height="4.33916" xlink:href="Logo-main_Images\Logo-main_ImgID1.png"/>
  </g>
 </g>
 <g id="main">
  <metadata id="CorelCorpID_1Corel-Layer"/>
  <polygon class="fil0 str0" points="0.59214,5.60633 3.32674,5.60602 5.46302,7.71303 7.53695,5.60629 10.2598,5.60651 10.2602,10.3513 7.53071,11.0795 7.53076,8.7341 5.46296,10.8344 3.31426,8.71546 3.31426,13.3522 0.59196,13.3522 "/>
  <polygon class="fil0 str0" points="10.2601,11.3057 7.53035,12.0467 7.53035,12.3837 10.2605,11.6426 "/>
  <polygon class="fil0 str0" points="10.2602,12.617 7.53019,13.3583 7.5304,13.6689 10.2601,12.928 "/>
  <polygon class="fil0 str0" points="10.2602,13.8853 7.53115,14.628 7.53115,15.3828 10.2613,14.6425 "/>
  <path class="fil1 str1" d="M12.442 7.798l2.01478 5e-005 0.00539 1.67989c-0.04379,0.46914 -0.39095,0.81318 -0.82567,0.99461 0.43161,0.21162 0.79444,0.5984 0.82574,1.02896l9e-005 1.84956 -2.0148 -0.00103 2e-005 -2.10194 -1.76192 0.00032 -4e-005 -1.60773 1.75646 0.00245 -5e-005 -1.84514z"/>
  <path class="fil2" d="M16.3673 11.8199c0.1431,0 0.24987,0.03963 0.3203,0.11887 0.06385,0.07264 0.09577,0.1717 0.09577,0.29717l0 0.71323c0,0.12769 -0.03082,0.22674 -0.09246,0.29719 -0.07045,0.07924 -0.1783,0.11888 -0.32361,0.11888l-1.08964 0c-0.14309,0 -0.24822,-0.03797 -0.31536,-0.11392 -0.06712,-0.07596 -0.1007,-0.17666 -0.1007,-0.30215l0 -0.71323c0,-0.12766 0.03082,-0.22672 0.09246,-0.29717 0.07045,-0.07924 0.17829,-0.11887 0.3236,-0.11887l1.08964 0zm-0.95097 0.41604l0 0.71323 0.81231 0 0 -0.71323 -0.81231 0zm2.99164 -0.39623l-0.40947 0.41604 -0.41604 -0.41604 -0.55473 0 0 1.52553 0.55473 0 0 -0.92788 0.41275 0.42597 0.41276 -0.42597 0 0.92788 0.55473 0 0 -1.52553 -0.55473 0zm1.36042 1.52553l-0.55473 0 0 -1.50571 1.78308 0 0 1.50571 -0.55475 0 0 -1.08967 -0.6736 0 0 1.08967zm2.72086 -1.08967l0 1.08967 0.55473 0 0 -1.50571 -1.36702 0c-0.14309,0 -0.2482,0.03796 -0.31534,0.11392 -0.06714,0.07593 -0.10072,0.17665 -0.10072,0.30212l0 0.65381 -0.11887 0 0 0.43586 0.6736 0 0 -1.08967 0.67362 0zm2.17602 0.13869l-0.67031 0 0 0.39625 1.16892 0 0 -0.53494c0,-0.12768 -0.03082,-0.22674 -0.09245,-0.29717 -0.07046,-0.07926 -0.17832,-0.11887 -0.32361,-0.11887l-1.03353 0c-0.14309,0 -0.2482,0.03796 -0.31534,0.11392 -0.06714,0.07593 -0.1007,0.17665 -0.1007,0.30212l0 0.6736c0,0.12769 0.03082,0.22674 0.09244,0.29719 0.07045,0.07924 0.17832,0.11888 0.3236,0.11888l1.44959 0 0 -0.41607 -1.3109 0 0 -0.6736 0.81229 0 0 0.13869zm0.73636 -0.55473l0 1.50571 0.55473 0 0 -0.57455 0.67362 0 0 0.57455 0.57455 0 0 -0.43257c0,-0.09465 -0.03413,-0.17721 -0.10237,-0.24766 -0.05504,-0.05723 -0.11778,-0.09355 -0.18821,-0.10896 0.06603,-0.00879 0.12767,-0.03851 0.1849,-0.08915 0.07045,-0.06383 0.10568,-0.13978 0.10568,-0.22784l0 -0.39953 -0.57455 0 0 0.47549 -0.67362 0 0 -0.47549 -0.55473 0zm1.98781 0l1.66421 0 0 0.41604 -0.55473 0 0 1.08967 -0.55475 0 0 -1.08967 -0.55473 0 0 -0.41604z"/>
  <path class="fil2" d="M12.0389 6.16475l-0.67031 0 0 0.39625 1.16893 0 0 -0.53494c0,-0.12768 -0.03082,-0.22674 -0.09246,-0.29717 -0.07045,-0.07926 -0.17832,-0.11887 -0.32361,-0.11887l-1.03353 0c-0.14309,0 -0.2482,0.03797 -0.31534,0.11392 -0.06714,0.07593 -0.1007,0.17665 -0.1007,0.30212l0 0.6736c0,0.12769 0.03082,0.22674 0.09244,0.2972 0.07045,0.07924 0.17832,0.11887 0.3236,0.11887l1.4496 0 0 -0.41607 -1.31091 0 0 -0.6736 0.81229 0 0 0.13869zm0.69013 -0.55473l1.66421 0 0 0.41604 -0.55473 0 0 1.08967 -0.55475 0 0 -1.08967 -0.55473 0 0 -0.41604zm1.84251 0l0.55475 0 0 0.8519 0.77266 -0.8519 0.57454 0 0 1.50571 -0.55473 0 0 -0.89484 -0.81229 0.89484 -0.53493 0 0 -1.50571zm2.143 0l1.18873 0c0.16069,0 0.28175,0.03961 0.36321,0.11887 0.07483,0.07265 0.11227,0.1717 0.11227,0.29717 0,0.10568 -0.02091,0.18933 -0.06273,0.25097 -0.03303,0.04842 -0.07595,0.08143 -0.12878,0.09905 0.05061,0.02861 0.0952,0.07264 0.13373,0.13207 0.03852,0.05945 0.05778,0.12328 0.05778,0.19151 0,0.12769 -0.03082,0.22674 -0.09245,0.2972 -0.07046,0.07924 -0.17832,0.11887 -0.32361,0.11887l-1.24815 0 0 -0.41607 1.08967 0 0 -0.13866 -0.65381 0 0 -0.39625 0.65381 0 0 -0.13869 -1.08967 0 0 -0.41604z"/>
 </g>
</svg>
