<?xml version="1.0" encoding="UTF-8"?>
<!DOCTYPE svg PUBLIC "-//W3C//DTD SVG 1.1//EN" "http://www.w3.org/Graphics/SVG/1.1/DTD/svg11.dtd">
<!-- Creator: CorelDRAW -->
<svg xmlns="http://www.w3.org/2000/svg" xml:space="preserve" width="100%" height="100%" style="shape-rendering:geometricPrecision; text-rendering:geometricPrecision; image-rendering:optimizeQuality; fill-rule:evenodd; clip-rule:evenodd"
viewBox="0 0 21 29.7"
 xmlns:xlink="http://www.w3.org/1999/xlink">
 <defs>
  <style type="text/css">
   <![CDATA[
    .str1 {stroke:#D9000F;stroke-width:0.02}
    .str0 {stroke:#E3000F;stroke-width:0.02}
    .fil1 {fill:#D9000F}
    .fil0 {fill:#E3000F}
   ]]>
  </style>
   <clipPath id="id0">
    <rect x="4.2382" y="12.6804" width="12.5236" height="4.33916"/>
   </clipPath>
 </defs>
 <g id="Слой_x0020_1" visibility="hidden">
  <metadata id="CorelCorpID_0Corel-Layer"/>
  <g style="clip-path:url(#id0)">
   <image transform="matrix(1 0 0 1 -6.2618 2.16958)" x="10.5" y="10.5108" width="12.5236" height="4.33916" xlink:href="Logo_Images\Logo_ImgID1.png"/>
  </g>
 </g>
 <g id="M">
  <metadata id="CorelCorpID_1Corel-Layer"/>
  <polygon class="fil0 str0" points="0.36646,5.32187 4.40627,5.3214 7.56219,8.43408 10.626,5.3218 14.6484,5.32213 14.649,12.3316 10.6168,13.4073 10.6168,9.9425 7.56209,13.0452 4.38784,9.91497 4.38784,16.7648 0.3662,16.7648 "/>
  <polygon class="fil0 str0" points="14.6489,13.7414 10.6163,14.8361 10.6163,15.334 14.6495,14.2392 "/>
  <polygon class="fil0 str0" points="14.649,15.6787 10.616,16.7738 10.6163,17.2327 14.6489,16.1381 "/>
  <polygon class="fil0 str0" points="14.649,17.5524 10.6174,18.6495 10.6174,19.7646 14.6506,18.6709 "/>
  <path class="fil1 str1" d="M17.7373 8.55961l2.97642 7e-005 0.00796 2.48169c0.00462,0.95181 -0.57755,1.20131 -1.21975,1.46933 0.63761,0.31263 1.2152,0.50514 1.21985,1.52008l0.00014 2.73234 -2.97645 -0.00152 3e-005 -3.10518 -2.60287 0.00047 -7e-005 -2.37509 2.59481 0.00361 -7e-005 -2.7258z"/>
 </g>
</svg>
